<?xml version="1.0" standalone="no"?>
<!DOCTYPE svg PUBLIC "-//W3C//DTD SVG 1.1//EN" "http://www.w3.org/Graphics/SVG/1.1/DTD/svg11.dtd" >
<svg xmlns="http://www.w3.org/2000/svg" xmlns:xlink="http://www.w3.org/1999/xlink" version="1.1">
<metadata>
Created by FontForge 20160405 at Mon Dec 19 04:42:09 2016
 By www-data
(c) 2011 MJP WebWorks USA. All Rights Reserved.
</metadata>
<defs>
<font id="WWDigital" horiz-adv-x="1229" >
  <font-face 
    font-family="WW Digital"
    font-weight="400"
    font-stretch="normal"
    units-per-em="2048"
    panose-1="2 11 6 4 3 5 4 4 2 4"
    ascent="1638"
    descent="-410"
    x-height="961"
    cap-height="1399"
    bbox="0 -435 1955 2128"
    underline-thickness="120"
    underline-position="-360"
    unicode-range="U+0020-2122"
  />
<missing-glyph horiz-adv-x="1163" 
d="M188 88l-88 88v611l88 89l88 -89v-611zM975 88l-88 88v611l88 89l88 -89v-611zM975 876l-88 -89h-611l-88 89l88 88h611zM975 88l-88 -88h-611l-88 88l88 88h611z" />
    <glyph glyph-name=".notdef" horiz-adv-x="1163" 
d="M188 88l-88 88v611l88 89l88 -89v-611zM975 88l-88 88v611l88 89l88 -89v-611zM975 876l-88 -89h-611l-88 89l88 88h611zM975 88l-88 -88h-611l-88 88l88 88h611z" />
    <glyph glyph-name=".null" horiz-adv-x="0" 
 />
    <glyph glyph-name="nonmarkingreturn" horiz-adv-x="682" 
 />
    <glyph glyph-name="space" unicode=" " horiz-adv-x="900" 
 />
    <glyph glyph-name="space" unicode="&#xa0;" horiz-adv-x="900" 
 />
    <glyph glyph-name="exclam" unicode="!" horiz-adv-x="577" 
d="M288 1399l89 -88v-700l-89 -271l-88 271v700zM200 176h177v-176h-177v176v0z" />
    <glyph glyph-name="quotedbl" unicode="&#x22;" horiz-adv-x="803" 
d="M100 1399h176v-214l-176 -264v478zM527 1399h176v-214l-176 -264v478z" />
    <glyph glyph-name="numbersign" unicode="#" horiz-adv-x="1526" 
d="M685 1299l68 -104l-88 -426l-104 -68l-69 103l16 80l180 5l39 170l-182 1l36 171zM436 102l-68 104l88 426l105 69l68 -105l-88 -426l-105 -68v0zM1426 971l-88 -88h-435l-87 88l87 88h435zM204 972l88 88l435 -1l89 -88l-89 -88l-435 1l-88 88v0zM1323 443l-88 -88
l-435 1l-88 88l88 88l435 -1zM100 444l88 88h435l89 -88l-89 -88h-435l-88 88v0zM1112 1299l68 -104l-88 -426l-104 -68l-68 103l88 427zM864 102l-68 104l88 426l104 69l68 -105l-13 -65l-180 1l-36 -177h179l-38 -185l-104 -68v0z" />
    <glyph glyph-name="dollar" unicode="$" 
d="M188 1311l88 88h677l88 -88l-88 -89h-677l-88 89v0zM188 700l88 87h677l88 -87l-88 -89h-677l-88 89v0zM188 88l88 88h677l88 -88l-88 -88h-677l-88 88v0zM1041 700l88 -89v-435l-88 -88l-88 88v435l88 89v0zM188 1311l-88 -89v-435l88 -87l88 87v435l-88 89v0zM526 1492
l88 94l89 -94v-1578l-89 -87l-88 87v1578v0z" />
    <glyph glyph-name="percent" unicode="%" horiz-adv-x="1230" 
d="M1041 699l-88 -88v-435l88 -88l88 88v435l-88 88v0zM614 700l89 87h250l88 -88l-88 -88h-250l-89 89v0zM614 88l89 88v435l-89 89l-88 -89v-435l88 -88v0zM953 0l88 88l-88 88h-250l-89 -88l89 -88h250v0zM614 1311l-88 -89v-435l88 -88l89 88v435l-89 89v0zM188 1312
l88 87h250l88 -88l-88 -89h-250l-88 90v0zM188 699l88 88v435l-88 90l-88 -90v-435l88 -88v0zM526 611l88 88l-88 88h-250l-88 -88l88 -88h250v0zM1130 1399l-1 -125l-177 -177h-124v125l177 177h125v0zM402 301v-124l-177 -177h-125v125l177 176h125v0z" />
    <glyph glyph-name="ampersand" unicode="&#x26;" horiz-adv-x="1228" 
d="M614 699l-88 -88v-435l88 -88l89 88v435l-89 88v0zM1128 1039l-122 -2l-304 -304l-2 -122l122 2l304 304l2 122v0zM1128 0l-2 122l-304 304l-122 2l2 -122l304 -304l122 -2v0zM188 87l88 89v435l-88 89l-88 -89v-435l88 -89v0zM526 0l88 88l-88 88h-250l-88 -88l88 -88
h250v0zM614 1311l-88 -89v-435l88 -88l89 88v435l-89 89v0zM188 1312l88 87h250l88 -88l-88 -89h-250l-88 90v0zM188 699l88 88v435l-88 90l-88 -90v-435l88 -88v0zM526 611l88 88l-88 88h-250l-88 -88l88 -88h250v0z" />
    <glyph glyph-name="quotesingle" unicode="'" horiz-adv-x="376" 
d="M100 1399h176v-214l-176 -264v478v0z" />
    <glyph glyph-name="parenleft" unicode="(" horiz-adv-x="590" 
d="M188 699l-88 102v498l88 101l88 -101v-498l-88 -102v0zM188 1l-88 102v497l88 101l88 -101v-497l-88 -102v0zM490 1701v-124l-177 -177h-125v125l177 176h125v0zM490 -300h-125l-177 177v124h125l177 -177v-124v0z" />
    <glyph glyph-name="parenright" unicode=")" horiz-adv-x="590" 
d="M402 700l88 -102v-497l-88 -101l-88 101v497l88 102v0zM402 1399l88 -102v-497l-88 -101l-88 101v497l88 102v0zM100 -301v124l177 177h125v-125l-177 -176h-125v0zM100 1700h125l177 -177v-124h-125l-177 177v124v0z" />
    <glyph glyph-name="asterisk" unicode="*" horiz-adv-x="1053" 
d="M307 682l-25 121l367 568l121 27l27 -122l-367 -569l-123 -25v0zM100 1044l88 86l677 1l88 -87l-88 -89l-677 -1l-88 90v0zM309 1399l120 -27l367 -568l-25 -122l-123 26l-366 569l27 122v0z" />
    <glyph glyph-name="plus" unicode="+" horiz-adv-x="1053" 
d="M100 700l88 87h677l88 -87l-88 -89h-677l-88 89v0zM528 1127l87 -88v-677l-87 -88l-90 88v677l90 88v0z" />
    <glyph glyph-name="comma" unicode="," horiz-adv-x="476" 
d="M100 176h176v-213l-176 -264v477v0z" />
    <glyph glyph-name="hyphen" unicode="-" horiz-adv-x="1053" 
d="M100 700l88 87h677l88 -87l-88 -89h-677l-88 89v0z" />
    <glyph glyph-name="hyphen" unicode="&#xad;" horiz-adv-x="1053" 
d="M100 700l88 87h677l88 -87l-88 -89h-677l-88 89v0z" />
    <glyph glyph-name="period" unicode="." horiz-adv-x="510" 
d="M100 210h210v-210h-209l-1 210v0z" />
    <glyph glyph-name="slash" unicode="/" horiz-adv-x="1121" 
d="M135 -61l-35 117l342 610l119 34l34 -120l-341 -610zM561 699l-35 117l341 610l120 34l34 -120l-342 -610z" />
    <glyph glyph-name="zero" unicode="0" 
d="M188 1311l88 88h677l88 -88l-88 -89h-677l-88 89v0zM188 88l88 88h677l88 -88l-88 -88h-677l-88 88v0zM1041 700l88 -89v-435l-88 -88l-88 88v435l88 89v0zM1041 1311l88 -89v-435l-88 -87l-88 87v435l88 89v0zM188 1311l-88 -89v-435l88 -87l88 87v435l-88 89v0zM188 88
l-88 88v435l88 89l88 -89v-435l-88 -88v0z" />
    <glyph glyph-name="one" unicode="1" horiz-adv-x="1129" 
d="M941 700l88 -102v-497l-88 -101l-88 101v497l88 102v0zM941 1399l88 -101v-498l-88 -100l-88 100v498l88 101v0z" />
    <glyph glyph-name="two" unicode="2" 
d="M188 1311l88 88h677l88 -88l-88 -89h-677l-88 89v0zM188 700l88 87h677l88 -87l-88 -89h-677l-88 89v0zM188 88l88 88h677l88 -88l-88 -88h-677l-88 88v0zM1041 1311l88 -89v-435l-88 -87l-88 87v435l88 89v0zM188 88l-88 88v435l88 89l88 -89v-435l-88 -88v0z" />
    <glyph glyph-name="three" unicode="3" horiz-adv-x="1141" 
d="M100 1311l88 88h677l88 -88l-88 -89h-677l-88 89v0zM100 700l88 87h677l88 -87l-88 -89h-677l-88 89v0zM100 88l88 88h677l88 -88l-88 -88h-677l-88 88v0zM953 700l88 -89v-435l-88 -88l-88 88v435l88 89v0zM953 1311l88 -89v-435l-88 -87l-88 87v435l88 89v0z" />
    <glyph glyph-name="four" unicode="4" 
d="M188 700l88 87h677l88 -87l-88 -89h-677l-88 89v0zM1041 700l88 -102v-497l-88 -101l-88 101v497l88 102v0zM1041 1399l88 -101v-498l-88 -100l-88 100v498l88 101v0zM188 1399l-88 -101v-498l88 -100l88 100v498l-88 101v0z" />
    <glyph glyph-name="five" unicode="5" 
d="M188 1311l88 88h677l88 -88l-88 -89h-677l-88 89v0zM188 700l88 87h677l88 -87l-88 -89h-677l-88 89v0zM188 88l88 88h677l88 -88l-88 -88h-677l-88 88v0zM1041 700l88 -89v-435l-88 -88l-88 88v435l88 89v0zM188 1311l-88 -89v-435l88 -87l88 87v435l-88 89v0z" />
    <glyph glyph-name="six" unicode="6" 
d="M188 1311l88 88h677l88 -88l-88 -89h-677l-88 89v0zM188 700l88 87h677l88 -87l-88 -89h-677l-88 89v0zM188 88l88 88h677l88 -88l-88 -88h-677l-88 88v0zM1041 700l88 -89v-435l-88 -88l-88 88v435l88 89v0zM188 1311l-88 -89v-435l88 -87l88 87v435l-88 89v0zM188 88
l-88 88v435l88 89l88 -89v-435l-88 -88v0z" />
    <glyph glyph-name="seven" unicode="7" horiz-adv-x="1141" 
d="M100 1311l88 88h677l88 -88l-88 -89h-677l-88 89v0zM953 700l88 -100v-490l-88 -100l-88 100v490l88 100v0zM953 1311l88 -89v-435l-88 -87l-88 87v435l88 89v0z" />
    <glyph glyph-name="eight" unicode="8" 
d="M188 1311l88 88h677l88 -88l-88 -89h-677l-88 89v0zM188 700l88 87h677l88 -87l-88 -89h-677l-88 89v0zM188 88l88 88h677l88 -88l-88 -88h-677l-88 88v0zM1041 700l88 -89v-435l-88 -88l-88 88v435l88 89v0zM1041 1311l88 -89v-435l-88 -87l-88 87v435l88 89v0z
M188 1311l-88 -89v-435l88 -87l88 87v435l-88 89v0zM188 88l-88 88v435l88 89l88 -89v-435l-88 -88v0z" />
    <glyph glyph-name="nine" unicode="9" 
d="M188 1311l88 88h677l88 -88l-88 -89h-677l-88 89v0zM188 700l88 87h677l88 -87l-88 -89h-677l-88 89v0zM188 88l88 88h677l88 -88l-88 -88h-677l-88 88v0zM1041 700l88 -89v-435l-88 -88l-88 88v435l88 89v0zM1041 1311l88 -89v-435l-88 -87l-88 87v435l88 89v0z
M188 1311l-88 -89v-435l88 -87l88 87v435l-88 89v0z" />
    <glyph glyph-name="colon" unicode=":" horiz-adv-x="613" 
d="M200 1104h213v-214h-213v214zM200 508h213v-213h-213v213z" />
    <glyph glyph-name="semicolon" unicode=";" horiz-adv-x="613" 
d="M200 1104h213v-214h-213v214zM200 508h213v-213l-213 -264v477z" />
    <glyph glyph-name="less" unicode="&#x3c;" horiz-adv-x="828" 
d="M628 1128l-2 -122l-304 -304l-122 -2l2 122l304 304zM200 700l122 -1l304 -305l2 -121l-122 1l-304 305z" />
    <glyph glyph-name="equal" unicode="=" horiz-adv-x="1053" 
d="M100 877l88 87h677l88 -87l-88 -90h-677l-88 90v0zM100 524l88 87h677l88 -87l-88 -89h-677l-88 89v0z" />
    <glyph glyph-name="greater" unicode="&#x3e;" horiz-adv-x="827" 
d="M200 272l1 121l305 305l121 1l-1 -121l-305 -305zM627 699l-121 2l-305 304l-1 122l121 -2l305 -304z" />
    <glyph glyph-name="question" unicode="?" 
d="M188 1311l88 88h677l88 -88l-88 -89h-677l-88 89v0zM1041 1311l-88 -89v-435l88 -87l88 87v435l-88 89v0zM188 1311l-88 -89v-435l88 -87l88 87v435l-88 89v0zM1042 700l-121 -1l-305 -305l-2 -121l122 1l304 305l2 121v0zM526 176h177v-176h-177v176v0z" />
    <glyph glyph-name="at" unicode="@" horiz-adv-x="1345" 
d="M953 1007l-88 -88v-435l88 -88l88 88v435l-88 88v0zM526 1008l88 87h251l88 -88l-88 -88h-251l-88 89v0zM526 396l88 88v435l-88 89l-88 -89v-435l88 -88v0zM865 308l88 88l-88 88h-251l-88 -88l88 -88h251v0zM188 1311l79 88h607l79 -88l-79 -89h-607l-79 89v0zM188 88
l88 88h881l88 -88l-88 -88h-881l-88 88v0zM188 1311l-88 -89v-435l88 -87l88 87v435l-88 89v0zM188 88l-88 88v435l88 89l88 -89v-435l-88 -88v0zM1041 1222v-303l-176 176v127l88 89l88 -89v0z" />
    <glyph glyph-name="A" unicode="A" 
d="M188 700l88 87h677l88 -87l-88 -89h-677l-88 89v0zM188 1312l88 87h677l88 -87l-88 -90h-677l-88 90v0zM1041 1312l88 -90v-435l-88 -88l-88 88v435l88 90v0zM188 699l-88 88v435l88 90l88 -90v-435l-88 -88v0zM100 611v-523l88 -88l88 88v523l-88 88l-88 -88v0zM1041 0
l88 88v523l-88 88l-88 -88v-523l88 -88v0z" />
    <glyph glyph-name="B" unicode="B" 
d="M188 700l88 87h677l88 -87l-88 -89h-677l-88 89v0zM188 88l88 88h677l88 -88l-88 -88h-677l-88 88v0zM1041 700l88 -89v-435l-88 -88l-88 88v435l88 89v0zM188 1311l-88 -89v-435l88 -87l88 87v435l-88 89v0zM188 88l-88 88v435l88 89l88 -89v-435l-88 -88v0zM614 1311
l-88 -89v-435h88h89v435l-89 89v0zM526 1399l88 -88l-88 -89h-250l-88 89l88 88h250v0z" />
    <glyph glyph-name="C" unicode="C" horiz-adv-x="1141" 
d="M188 1311l88 88h677l88 -88l-88 -89h-677l-88 89v0zM188 88l88 88h677l88 -88l-88 -88h-677l-88 88v0zM188 1311l-88 -89v-435l88 -87l88 87v435l-88 89v0zM188 88l-88 88v435l88 89l88 -89v-435l-88 -88v0z" />
    <glyph glyph-name="D" unicode="D" 
d="M188 88l88 88h677l88 -88l-88 -88h-677l-88 88v0zM1041 700l88 -89v-435l-88 -88l-88 88v435l88 89v0zM188 1311l88 -89v-435l-88 -87l-88 87v435zM612 1307l134 -36l307 -433l-10 -138l-133 36l-308 433zM188 88l-88 88v435l88 89l88 -89v-435l-88 -88v0zM276 1399h250
l88 -88l-88 -89h-250l-88 89z" />
    <glyph glyph-name="E" unicode="E" horiz-adv-x="1141" 
d="M188 88l88 88h677l88 -88l-88 -88h-677l-88 88v0zM188 1311l88 88h677l88 -88l-88 -89h-677l-88 89v0zM188 700l88 88h677l88 -88l-88 -88h-677l-88 88v0zM188 1311l-88 -89v-435l88 -87l88 87v435l-88 89v0zM188 88l-88 88v435l88 89l88 -89v-435l-88 -88v0z" />
    <glyph glyph-name="F" unicode="F" horiz-adv-x="1141" 
d="M188 1311l88 88h677l88 -88l-88 -89h-677l-88 89v0zM188 700l88 88h677l88 -88l-88 -88h-677l-88 88v0zM188 1311l-88 -89v-435l88 -87l88 87v435l-88 89v0zM100 611l88 89l88 -88v-524l-88 -88l-88 88v523v0z" />
    <glyph glyph-name="G" unicode="G" 
d="M188 1311l88 88h677l88 -88l-88 -89h-677l-88 89v0zM188 88l88 88h677l88 -88l-88 -88h-677l-88 88v0zM1041 700l88 -89v-435l-88 -88l-88 88v435l88 89v0zM188 1311l-88 -89v-435l88 -87l88 87v435l-88 89v0zM188 88l-88 88v435l88 89l88 -89v-435l-88 -88v0zM614 699
l89 88h250l88 -87l-88 -89h-250l-89 88v0z" />
    <glyph glyph-name="H" unicode="H" 
d="M188 700l88 88h677l88 -88l-88 -88h-677l-88 88v0zM953 1311l88 88l88 -88v-524l-88 -87l-88 88v523v0zM953 610l88 88l88 -88v-523l-88 -87l-88 88v522v0zM100 610l88 88l88 -88v-523l-88 -87l-88 88v522v0zM100 1311l88 88l88 -88v-524l-88 -87l-88 88v523v0z" />
    <glyph glyph-name="I" unicode="I" horiz-adv-x="1053" 
d="M526 1311l89 -89v-435l-89 -88l-88 88v435zM526 700l89 -88v-435l-89 -88l-88 88v435zM953 1311l-88 -89h-250l-89 89l89 88h250zM953 88l-88 -88h-250l-89 88l89 88h250zM526 1311l-88 -89h-250l-88 89l88 88h250zM526 88l-88 -88h-250l-88 88l88 88h250z" />
    <glyph glyph-name="J" unicode="J" 
d="M188 88l88 88h677l88 -88l-88 -88h-677l-88 88v0zM953 1311l88 88l88 -88v-524l-88 -87l-88 88v523v0zM1041 700l-88 -89v-435l88 -88l88 88v435l-88 89v0zM188 700l-88 -89v-435l88 -88l88 88v435l-88 89v0z" />
    <glyph glyph-name="K" unicode="K" horiz-adv-x="1213" 
d="M610 570l13 139l133 -40l357 -530l-14 -137l-133 40l-356 528v0zM984 1195h124v-125l-370 -370l-124 1v125l370 369v0zM100 610l88 88l88 -88v-523l-88 -87l-88 88v522v0zM100 1311l88 88l88 -88v-524l-88 -87l-88 88v523v0zM614 698l-88 89h-250l-88 -87l88 -90l250 1
l88 87v0z" />
    <glyph glyph-name="L" unicode="L" horiz-adv-x="1141" 
d="M100 1311l88 88l88 -88v-524l-88 -87l-88 88v523v0zM188 88l88 88v435l-88 89l-88 -89v-435l88 -88v0zM1041 88l-88 88h-677l-88 -88l88 -88h677l88 88v0z" />
    <glyph glyph-name="M" unicode="M" 
d="M1041 1312l88 -90v-435l-88 -88l-88 88v435l88 90v0zM614 1312l89 -90v-435l-89 -88l-88 88v435l88 90v0zM188 699l-88 88v435l88 90l88 -90v-435l-88 -88v0zM100 611l88 88l88 -88v-523l-88 -88l-88 88v523zM1041 0l-88 88v523l88 88l88 -88v-523zM276 1399h250l88 -87
l-88 -90h-250l-88 90zM703 1399h250l88 -87l-88 -90h-250l-89 90z" />
    <glyph glyph-name="N" unicode="N" 
d="M100 611l88 88l88 -88v-523l-88 -88l-88 88v523zM100 1311l88 88l88 -88v-524l-88 -88l-88 88v524zM953 1311l88 88l88 -88v-524l-88 -88l-88 88v524zM953 611l88 88l88 -88v-523l-88 -88l-88 88v523zM294 1230l45 116l116 -46l209 -480l-46 -116l-116 46zM572 588
l46 116l116 -45l209 -480l-46 -116l-116 46z" />
    <glyph glyph-name="O" unicode="O" 
d="M188 1311l88 88h677l88 -88l-88 -89h-677l-88 89v0zM188 88l88 88h677l88 -88l-88 -88h-677l-88 88v0zM1041 700l88 -89v-435l-88 -88l-88 88v435l88 89v0zM188 1311l-88 -89v-435l88 -87l88 87v435l-88 89v0zM1041 1311l-88 -89v-435l88 -87l88 87v435l-88 89v0zM188 88
l-88 88v435l88 89l88 -89v-435l-88 -88v0z" />
    <glyph glyph-name="P" unicode="P" 
d="M188 1311l88 88h677l88 -88l-88 -89h-677l-88 89v0zM188 700l88 88h677l88 -88l-88 -88h-677l-88 88v0zM188 1311l-88 -89v-435l88 -87l88 87v435l-88 89v0zM100 611l88 89l88 -88v-524l-88 -88l-88 88v523v0zM1129 1222v-434l-88 -88l-88 88v434l88 89l88 -89v0z" />
    <glyph glyph-name="Q" unicode="Q" 
d="M188 1311l88 88h677l88 -88l-88 -89h-677l-88 89v0zM1041 700l88 -89v-435l-88 -88l-88 88v435l88 89v0zM520 433l125 -1l308 -307v-125h-125l-307 308l-1 125v0zM188 1311l-88 -89v-435l88 -87l88 87v435l-88 89v0zM1041 1311l-88 -89v-435l88 -87l88 87v435l-88 89v0z
M188 88l-88 88v435l88 89l88 -89v-435l-88 -88v0zM614 88l-88 88h-250l-88 -88l88 -88h250l88 88v0z" />
    <glyph glyph-name="R" unicode="R" 
d="M188 1311l88 88h677l88 -88l-88 -89h-677l-88 89v0zM188 700l88 88h677l88 -88l-88 -88h-677l-88 88v0zM188 1311l-88 -89v-435l88 -87l88 87v435l-88 89v0zM100 611l88 89l88 -88v-524l-88 -88l-88 88v523v0zM635 370l-1 125h124l371 -370v-125h-125l-369 370v0z
M1129 1222v-434l-88 -88l-88 88v434l88 89l88 -89v0z" />
    <glyph glyph-name="S" unicode="S" 
d="M188 1311l88 88h677l88 -88l-88 -89h-677l-88 89v0zM188 700l88 87h677l88 -87l-88 -89h-677l-88 89v0zM188 88l88 88h677l88 -88l-88 -88h-677l-88 88v0zM1041 700l88 -89v-435l-88 -88l-88 88v435l88 89v0zM188 1311l-88 -89v-435l88 -87l88 87v435l-88 89v0z" />
    <glyph glyph-name="T" unicode="T" 
d="M614 1311l89 -89v-435l-89 -88l-88 88v435zM1129 1311l-88 -89h-338l-89 89l89 88h338zM614 1311l-88 -89h-338l-88 89l88 88h338zM614 0l-88 88v523l88 88l89 -88v-523z" />
    <glyph glyph-name="U" unicode="U" 
d="M1041 87l-88 -87h-677l-88 87l88 89h677l88 -89v0zM188 87l-88 89v435l88 88l88 -88v-435l-88 -89v0zM1041 699l88 -88v-435l-88 -89l-88 89v435l88 88v0zM1129 787l-88 -88l-88 88v524l88 88l88 -88v-524zM188 1399l88 -88v-524l-88 -88l-88 88v524z" />
    <glyph glyph-name="V" unicode="V" 
d="M1129 787l-88 -88l-88 88v524l88 88l88 -88v-524zM188 1399l88 -88v-524l-88 -88l-88 88v524zM191 703l128 -44l308 -525l-25 -133l-127 44l-308 525zM640 -2l-26 133l302 529l127 46l26 -133l-301 -529z" />
    <glyph glyph-name="W" unicode="W" 
d="M188 87l-88 89v435l88 88l88 -88v-435l-88 -89v0zM614 87l-88 89v435l88 88l89 -88v-435l-89 -89v0zM1041 699l88 -88v-435l-88 -89l-88 89v435l88 88v0zM1129 787l-88 -88l-88 88v524l88 88l88 -88v-524zM188 1399l88 -88v-524l-88 -88l-88 88v524zM953 0h-250l-89 87
l89 89h250l88 -89zM526 0h-250l-88 87l88 89h250l88 -89z" />
    <glyph glyph-name="X" unicode="X" horiz-adv-x="1106" 
d="M125 1397l127 -44l308 -525l-24 -133l-128 44l-308 525zM574 692l-26 133l301 529l128 46l25 -133l-301 -529zM982 4l-128 44l-308 526l24 133l128 -44l308 -526zM532 709l26 -133l-301 -529l-127 -45l-26 132l301 530z" />
    <glyph glyph-name="Y" unicode="Y" horiz-adv-x="1102" 
d="M125 1397l127 -44l308 -525l-24 -133l-128 44l-308 525zM574 692l-26 133l301 529l128 46l25 -133l-301 -529zM551 700l89 -89v-523l-89 -88l-88 88v523l88 89v0z" />
    <glyph glyph-name="Z" unicode="Z" 
d="M617 699l-9 140l373 523l135 37l9 -139l-374 -524zM113 0l-9 139l374 524l134 37l9 -139l-374 -524zM1129 88l-88 -88h-651l-77 88l71 88h657zM916 1311l-88 -89h-651l-77 89l71 88h657z" />
    <glyph glyph-name="bracketleft" unicode="[" horiz-adv-x="764" 
d="M288 700l-88 -88v-610l88 -89l88 88v611l-88 88v0zM288 -175l88 88h250l88 -88l-88 -88h-250l-88 88v0zM288 1576l88 88h250l88 -88l-88 -88h-250l-88 88v0zM288 -175l88 88v88l-88 -88l-88 89v-88l88 -89v0zM288 1576l-88 -88v-610l88 -90l88 89v611l-88 88v0zM288 700
l88 88v89l-88 -89l-88 90v-89l88 -89v0z" />
    <glyph glyph-name="backslash" unicode="\" horiz-adv-x="939" 
d="M788 -112l-113 47l-256 651l50 114l114 -50l256 -651zM469 699l-113 46l-256 651l49 114l115 -49l256 -651z" />
    <glyph glyph-name="bracketright" unicode="]" horiz-adv-x="765" 
d="M477 700l88 88v611l-88 89l-88 -88v-612l88 -88v0zM477 1576l-88 -88h-250l-89 88l89 88h250l88 -88v0zM477 -175l-88 -88h-250l-89 88l89 88h250l88 -88v0zM477 1576l-88 -88v-88l88 88l88 -89v88l-88 89v0zM477 -175l88 88v610l-88 89l-88 -88v-611l88 -88v0zM477 700
l-88 -88v-88l88 88l88 -89v89l-88 88v0z" />
    <glyph glyph-name="asciicircum" unicode="^" horiz-adv-x="1055" 
d="M955 971l-121 2l-305 304l-1 122l121 -2l305 -304zM528 1399l-2 -122l-304 -304l-122 -2l2 122l304 304z" />
    <glyph glyph-name="underscore" unicode="_" horiz-adv-x="1053" 
d="M100 88l88 88h677l88 -88l-88 -88h-677l-88 88v0z" />
    <glyph glyph-name="grave" unicode="`" horiz-adv-x="465" 
d="M100 1530l146 97l119 -177v-318l-265 398v0z" />
    <glyph glyph-name="a" unicode="a" horiz-adv-x="979" 
d="M791 876l-88 -89h-427l-88 89l88 88h427zM791 482l-88 -88h-427l-88 88l88 88h427zM791 88l-88 -88h-427l-88 88l88 88h427zM879 394v-218l-88 -88l-88 88v218l88 88l88 -88v0zM276 394v-218l-88 -88l-88 88v218l88 88l88 -88v0zM879 789v-218l-88 -88l-88 88v218l88 88
l88 -88v0z" />
    <glyph glyph-name="b" unicode="b" horiz-adv-x="979" 
d="M188 876l88 88h427l88 -88l-88 -89h-427l-88 89v0zM791 88l-88 88v611l88 89l88 -89v-611zM188 88l-88 88v611l88 89l88 -89v-611zM276 0l-88 88l88 88h427l88 -88l-88 -88h-427zM188 1399l88 -88v-347l-88 -88l-88 88v347z" />
    <glyph glyph-name="c" unicode="c" horiz-adv-x="891" 
d="M188 876l88 88h427l88 -88l-88 -89h-427l-88 89v0zM188 88l88 88v611l-88 89l-88 -89v-611l88 -88v0zM276 0h427l88 88l-88 88h-427l-88 -88l88 -88v0z" />
    <glyph glyph-name="d" unicode="d" horiz-adv-x="979" 
d="M188 876l88 88h427l88 -88l-88 -89h-427l-88 89v0zM791 88l-88 88v611l88 89l88 -89v-611zM188 88l-88 88v611l88 89l88 -89v-611zM276 0l-88 88l88 88h427l88 -88l-88 -88h-427zM791 1399l88 -88v-347l-88 -88l-88 88v347z" />
    <glyph glyph-name="e" unicode="e" horiz-adv-x="979" 
d="M791 876l-88 -89h-427l-88 89l88 88h427zM791 482l-88 -88h-427l-88 88l88 88h427zM791 88l-88 -88h-427l-88 88l88 88h427zM276 394v-218l-88 -88l-88 88v218l88 88l88 -88v0zM879 789v-218l-88 -88l-88 88v218l88 88l88 -88v0zM276 789v-218l-88 -88l-88 88v218l88 88
l88 -88v0z" />
    <glyph glyph-name="f" unicode="f" horiz-adv-x="929" 
d="M188 876l88 88h427l88 -88l-88 -89h-427l-88 89v0zM879 1311l-88 -89h-515l-88 89l88 88h515zM188 1311l88 -89v-258l-88 -88l-88 88v258zM188 0l-88 88v699l88 89l88 -89v-699z" />
    <glyph glyph-name="g" unicode="g" horiz-adv-x="979" 
d="M188 876l88 88h427l88 -88l-88 -89h-427l-88 89v0zM791 88l88 88v611l-88 89l-88 -89v-611l88 -88v0zM188 88l88 88v611l-88 89l-88 -89v-611l88 -88v0zM276 0h427l88 88l-88 88h-427l-88 -88l88 -88v0zM100 -346l88 88h515l88 -88l-88 -82h-515l-88 82v0zM879 0v-258
l-88 -88l-88 88v258l88 88l88 -88v0z" />
    <glyph glyph-name="h" unicode="h" horiz-adv-x="979" 
d="M703 964l88 -88l-88 -89h-427l-88 89l88 88h427zM791 0l-88 88v699l88 89l88 -89v-699l-88 -88v0zM188 0l-88 88v699l88 89l88 -89v-699l-88 -88v0zM188 1399l88 -88v-347l-88 -88l-88 88v347z" />
    <glyph glyph-name="i" unicode="i" horiz-adv-x="376" 
d="M188 964l88 -88v-788l-88 -88l-88 88v788zM100 1399h176v-177h-176v177z" />
    <glyph glyph-name="j" unicode="j" horiz-adv-x="891" 
d="M615 1399h176v-177h-176v177zM703 964l88 -88v-700l-88 -88l-88 88v700zM615 0l88 88l88 -88v-257l-88 -88l-88 88v257v0zM100 -345l88 88h427l88 -88l-88 -82h-427l-88 82v0z" />
    <glyph glyph-name="k" unicode="k" horiz-adv-x="966" 
d="M188 1399l88 -88v-347l-88 -88l-88 88v347zM671 1136l-1 -124l-247 -244h-124l1 125l246 244zM100 787l88 89l88 -89v-699l-88 -88l-88 88v699zM281 668l17 130l128 -29l440 -632l-17 -130l-128 29z" />
    <glyph glyph-name="l" unicode="l" horiz-adv-x="376" 
d="M188 1399l88 -88v-347l-88 -88l-88 88v347zM100 787l88 89l88 -89v-699l-88 -88l-88 88v699z" />
    <glyph glyph-name="m" unicode="m" horiz-adv-x="1581" 
d="M100 787v-699l88 -88l88 88v699l-88 89l-88 -89v0zM703 787v-699l88 -88l88 88v699l-88 89l-88 -89v0zM1305 787v-699l88 -88l88 88v699l-88 89l-88 -89v0zM188 876l88 88h427l88 -88l-88 -89h-427l-88 89v0zM791 876l88 88h426l88 -88l-88 -89h-426l-88 89v0z" />
    <glyph glyph-name="n" unicode="n" horiz-adv-x="979" 
d="M100 787v-699l88 -88l88 88v699l-88 89l-88 -89v0zM703 787v-699l88 -88l88 88v699l-88 89l-88 -89v0zM188 876l88 88h427l88 -88l-88 -89h-427l-88 89v0z" />
    <glyph glyph-name="o" unicode="o" horiz-adv-x="979" 
d="M188 876l88 88h427l88 -88l-88 -89h-427l-88 89v0zM791 88l88 88v611l-88 89l-88 -89v-611l88 -88v0zM188 88l88 88v611l-88 89l-88 -89v-611l88 -88v0zM276 0h427l88 88l-88 88h-427l-88 -88l88 -88v0z" />
    <glyph glyph-name="p" unicode="p" horiz-adv-x="979" 
d="M188 876l88 88h427l88 -88l-88 -89h-427l-88 89v0zM791 88l88 88v611l-88 89l-88 -89v-611l88 -88v0zM188 88l88 88v611l-88 89l-88 -89v-611l88 -88v0zM276 0h427l88 88l-88 88h-427l-88 -88l88 -88v0zM188 -435l88 82v353l-88 88l-88 -88v-341l88 -94v0z" />
    <glyph glyph-name="q" unicode="q" horiz-adv-x="979" 
d="M188 876l88 88h427l88 -88l-88 -89h-427l-88 89v0zM791 88l88 88v611l-88 89l-88 -89v-611l88 -88v0zM188 88l88 88v611l-88 89l-88 -89v-611l88 -88v0zM276 0h427l88 88l-88 88h-427l-88 -88l88 -88v0zM791 -424l88 82v342l-88 88l-88 -88v-330l88 -94v0z" />
    <glyph glyph-name="r" unicode="r" horiz-adv-x="891" 
d="M188 876l88 88h427l88 -88l-88 -89h-427l-88 89v0zM188 0l88 88v699l-88 89l-88 -89v-699l88 -88v0z" />
    <glyph glyph-name="s" unicode="s" horiz-adv-x="979" 
d="M791 876l-88 -89h-427l-88 89l88 88h427zM791 482l-88 -88h-427l-88 88l88 88h427zM791 88l-88 -88h-427l-88 88l88 88h427zM879 394v-218l-88 -88l-88 88v218l88 88l88 -88v0zM276 789v-218l-88 -88l-88 88v218l88 88l88 -88v0z" />
    <glyph glyph-name="t" unicode="t" horiz-adv-x="979" 
d="M188 876l88 88h427l88 -88l-88 -89h-427l-88 89v0zM188 1399l88 -88v-347l-88 -88l-88 88v347zM879 88l-88 -88h-515l-88 88l88 88h515zM100 787l88 89l88 -89v-611l-88 -88l-88 88v611z" />
    <glyph glyph-name="u" unicode="u" horiz-adv-x="979" 
d="M276 0h427l88 88l-88 88h-427l-88 -88l88 -88v0zM188 964l88 -88v-700l-88 -88l-88 88v700l88 88v0zM791 964l88 -88v-700l-88 -88l-88 88v700l88 88v0z" />
    <glyph glyph-name="v" unicode="v" horiz-adv-x="1120" 
d="M100 835l46 128l119 -66l291 -769l-46 -128l-119 66zM720 67l-120 -65l-44 129l300 766l119 64l45 -128z" />
    <glyph glyph-name="w" unicode="w" horiz-adv-x="1581" 
d="M1481 176l-88 -88l-88 88v700l88 88l88 -88v-700zM879 176l-88 -88l-88 88v700l88 88l88 -88v-700zM276 176l-88 -88l-88 88v700l88 88l88 -88v-700zM1393 88l-88 -88h-426l-88 88l88 88h426l88 -88v0zM791 88l-88 -88h-427l-88 88l88 88h427l88 -88v0z" />
    <glyph glyph-name="x" unicode="x" horiz-adv-x="862" 
d="M119 961l128 -36l515 -790l-20 -132l-128 36l-514 790zM740 962l20 -132l-510 -792l-128 -37l-20 132l509 793z" />
    <glyph glyph-name="y" unicode="y" horiz-adv-x="986" 
d="M125 961l122 -27l458 -702l-26 -123l-122 27l-457 702zM710 876l88 85l88 -85v-700l-88 -88l-93 88l5 700v0zM798 -435l-88 82v353l88 88l88 -88v-353z" />
    <glyph glyph-name="z" unicode="z" horiz-adv-x="977" 
d="M872 796l-123 13l-637 -518l-12 -123l123 -14l637 518l12 124v0zM100 876l86 88h515l88 -88l-88 -89h-515l-86 89v0zM877 88l-88 -88h-515l-88 88l88 88h515l88 -88v0z" />
    <glyph glyph-name="braceleft" unicode="{" horiz-adv-x="1005" 
d="M574 1475l-127 -43l-347 -602l26 -131l126 43l348 602l-26 131v0zM126 702l-26 -131l347 -603l127 -42l26 131l-348 602l-126 43v0zM579 1487l88 88h250l88 -89l-88 -87h-250l-88 88v0zM579 -88l88 88h250l88 -88l-88 -88h-250l-88 88v0z" />
    <glyph glyph-name="bar" unicode="|" horiz-adv-x="577" 
d="M288 699l-88 111v754l88 109l89 -109v-756zM288 -273l-88 110v755l88 109l89 -109v-756z" />
    <glyph glyph-name="braceright" unicode="}" horiz-adv-x="1005" 
d="M431 -77l126 43l348 603l-26 131l-127 -43l-347 -603l26 -131v0zM879 697l26 131l-348 602l-126 43l-26 -131l347 -602l127 -43v0zM426 -88l-88 -88h-250l-88 88l88 88h250l88 -88v0zM426 1487l-88 -88h-250l-88 88l88 88h250l88 -88v0z" />
    <glyph glyph-name="asciitilde" unicode="~" horiz-adv-x="1104" 
d="M401 850h124l177 -177l1 -124l-125 -1l-177 178v124v0zM702 549v125l177 177l124 1l1 -126l-177 -177h-125v0zM100 548v125l177 177l123 1l1 -126l-177 -177h-124v0z" />
    <glyph glyph-name="exclamdown" unicode="&#xa1;" horiz-adv-x="377" 
d="M189 11l88 88v700l-88 271l-89 -271v-700zM277 1234h-177v176h177v-176z" />
    <glyph glyph-name="cent" unicode="&#xa2;" horiz-adv-x="979" 
d="M100 176v611l88 90l88 -88v-611l-88 -89zM879 877l-88 -90l-515 2l-88 88l88 87h515zM879 89l-88 -89l-515 1l-88 88l88 87h515zM499 1399l88 -88v-259l-88 -87l-88 87v259zM499 700l88 -88v-259l-88 -87l-88 87v259zM499 0l88 -88v-259l-88 -87l-88 87v259z" />
    <glyph glyph-name="sterling" unicode="&#xa3;" horiz-adv-x="1263" 
d="M1163 1311l-88 -89h-250l-88 89l88 88h250zM736 1306l57 -111l-159 -497l-111 -58l-57 110l159 498zM529 639l20 -123l-306 -423l-123 -21l-20 123l306 424zM1159 88l-84 -88h-338l-89 88l89 88h338zM1075 611l-84 -88h-338l-89 88l89 88h338zM560 176l88 -88l-88 -88
h-222l-53 88l62 88h213z" />
    <glyph glyph-name="currency" unicode="&#xa4;" horiz-adv-x="1302" 
d="M1168 257l-110 -110l-236 234q-44 -26 -81 -37t-89 -11q-46 0 -89.5 12.5t-79.5 35.5l-236 -236l-109 113l233 234q-23 37 -35 81.5t-12 87.5q0 52 11 88.5t37 79.5l-234 237l111 110l235 -235q36 23 79.5 35.5t88.5 12.5q44 0 88 -12t81 -35l234 234l113 -109l-235 -237
q24 -38 36 -79.5t12 -89.5q0 -45 -12.5 -89t-35.5 -80zM832 661q0 73 -52.5 129t-127.5 56q-73 0 -126.5 -55t-53.5 -130q0 -74 52.5 -129.5t127.5 -55.5q73 0 126.5 54.5t53.5 130.5z" />
    <glyph glyph-name="yen" unicode="&#xa5;" horiz-adv-x="1302" 
d="M1191 1489l-448 -842v-47h372v-138h-370v-138h370v-138h-370v-186h-188v186h-370v138h370v138h-370v138h372v47l-451 842h212l332 -659l336 659h203z" />
    <glyph glyph-name="brokenbar" unicode="&#xa6;" horiz-adv-x="930" 
d="M552 758h-174v798h174v-798zM552 -392h-174v798h174v-798z" />
    <glyph glyph-name="section" unicode="&#xa7;" horiz-adv-x="1302" 
d="M1128 601q0 -106 -59 -187t-158 -136v-7q97 -46 141 -118.5t44 -162.5q0 -77 -33 -146t-98 -119q-72 -56 -169 -83t-221 -27q-87 0 -170.5 13.5t-175.5 44.5v194h10q79 -37 169 -62t198 -25q134 0 215 48.5t81 135.5q0 56 -19.5 88.5t-64.5 57.5q-41 23 -113 41.5
t-154 38.5q-214 52 -296 133q-83 81 -83 210q0 98 57 182.5t159 141.5v7q-101 48 -143 121t-42 162q0 81 32 146.5t99 117.5q64 50 163.5 79t227.5 29q87 0 171 -14t175 -43v-194h-10q-58 27 -152.5 57t-215.5 30q-127 0 -211.5 -46t-84.5 -133q0 -57 21.5 -92.5t64.5 -58.5
t109 -41.5t157 -39.5q200 -46 290 -125q89 -79 89 -218zM881 399q28 33 43 65.5t15 90.5q0 51 -16.5 86t-45.5 58q-28 24 -67 39.5t-83 27.5q-39 11 -85.5 21.5t-116.5 30.5q-18 -9 -49 -31.5t-53 -46.5q-24 -26 -43 -69t-19 -92q0 -50 15.5 -85t44.5 -59q27 -23 67.5 -39
t84.5 -27q38 -10 86 -22t115 -31q20 11 53 34.5t54 48.5z" />
    <glyph glyph-name="dieresis" unicode="&#xa8;" horiz-adv-x="1302" 
d="M958 1304h-199v195h199v-195zM545 1304h-199v195h199v-195z" />
    <glyph glyph-name="copyright" unicode="&#xa9;" 
d="M872 1007l-88 87h-251l-88 -87l88 -89h251l88 89v0zM872 396l-88 87h-251l-88 -87l88 -89h251l88 89v0zM445 395l88 88v435l-88 89l-88 -100v-424l88 -88v0zM188 1311l88 88h677l88 -88l-88 -89h-677l-88 89v0zM188 88l88 88h677l88 -88l-88 -88h-677l-88 88v0zM188 88
l88 88v1046l-88 89l-88 -89v-1046l88 -88v0zM1041 88l88 88v1046l-88 89l-88 -89v-1046l88 -88v0z" />
    <glyph glyph-name="ordfeminine" unicode="&#xaa;" horiz-adv-x="1117" 
 />
    <glyph glyph-name="guillemotleft" unicode="&#xab;" horiz-adv-x="1059" 
d="M526 1006l-304 -304l-122 -2l2 122l304 304l122 2zM222 699l304 -305l2 -121l-122 1l-304 305l-2 121zM957 1006l-304 -304l-122 -2l2 122l304 304l122 2zM653 699l304 -305l2 -121l-122 1l-304 305l-2 121z" />
    <glyph glyph-name="logicalnot" unicode="&#xac;" horiz-adv-x="1523" 
d="M100 701l88 88h1065l88 -88l-88 -88h-1065zM1335 113l-88 88v412l88 88l88 -88v-412z" />
    <glyph glyph-name="registered" unicode="&#xae;" horiz-adv-x="1163" 
d="M100 176v611l88 89l88 -89v-611l-88 -88zM887 176v611l88 89l88 -89v-611l-88 -88zM887 787h-611l-88 89l88 88h611l88 -88zM887 0h-611l-88 88l88 88h611l88 -88z" />
    <glyph glyph-name="macron" unicode="&#xaf;" horiz-adv-x="1385" 
d="M100 1722l88 88h1009l88 -88l-88 -88h-1009z" />
    <glyph glyph-name="degree" unicode="&#xb0;" horiz-adv-x="1110" 
d="M283 1378l88 88h427l88 -88l-88 -89h-427zM887 794l88 88l-1 407l-88 89l-88 -89l1 -407zM284 794l88 88l-1 407l-88 89l-88 -89l1 -407zM372 706h427l88 88l-88 88h-427l-88 -88z" />
    <glyph glyph-name="plusminus" unicode="&#xb1;" horiz-adv-x="1676" 
d="M1461 179h-1246v158h540v422h-540v158h540v545h166v-545h540v-158h-540v-422h540v-158z" />
    <glyph glyph-name="twosuperior" unicode="&#xb2;" horiz-adv-x="1110" 
d="M967 566h-760v156q100 62 183.5 117t134.5 96q131 103 168 154.5t37 135.5q0 69 -53.5 107t-143.5 38q-89 0 -175 -30.5t-134 -61.5h-13v180q71 26 158.5 43.5t174.5 17.5q180 0 273.5 -78.5t93.5 -203.5q0 -99 -48.5 -174.5t-163.5 -165.5q-55 -43 -132.5 -94
t-143.5 -92h544v-145z" />
    <glyph glyph-name="threesuperior" unicode="&#xb3;" horiz-adv-x="1110" 
d="M956 817q0 -75 -33 -131.5t-89 -90.5q-57 -35 -131 -51.5t-163 -16.5q-94 0 -176.5 15t-156.5 43v179h14q41 -36 138.5 -65.5t190.5 -29.5q100 0 166.5 35.5t66.5 110.5q0 85 -59 115t-171 30h-143v141h128q112 0 165.5 38.5t53.5 106.5q0 61 -49.5 96.5t-153.5 35.5
q-77 0 -174.5 -31t-141.5 -67h-14v178q74 27 160.5 44.5t176.5 17.5q175 0 271.5 -68t96.5 -174q0 -89 -55 -146t-144 -83v-8q95 -17 160.5 -72.5t65.5 -151.5z" />
    <glyph glyph-name="acute" unicode="&#xb4;" horiz-adv-x="469" 
d="M369 1576l-269 -394v315l121 175z" />
    <glyph glyph-name="mu1" unicode="&#xb5;" horiz-adv-x="979" 
d="M276 0h427l88 88l-88 88h-427l-88 -88l88 -88v0zM188 964l88 -88v-700l-88 -88l-88 88v700l88 88v0zM791 964l88 -88v-700l-88 -88l-88 88v700l88 88v0zM188 -435l88 88l-10 357l-78 78l-88 -88v-347l88 -88v0z" />
    <glyph glyph-name="paragraph" unicode="&#xb6;" horiz-adv-x="1302" 
d="M1106 -363h-148v1722h-214v-1722h-149v956q-206 5 -332 129t-126 328q0 207 130 323t373 116h466v-1852z" />
    <glyph glyph-name="periodcentered" unicode="&#xb7;" horiz-adv-x="745" 
d="M492 511h-239v283h239v-283z" />
    <glyph glyph-name="cedilla" unicode="&#xb8;" horiz-adv-x="1302" 
d="M373 -225l355 223l147 -33l-29 -129l-358 -240l-148 32z" />
    <glyph glyph-name="onesuperior" unicode="&#xb9;" horiz-adv-x="1110" 
d="M914 566h-615v122h234v568h-242v112q45 0 99 6.5t84 18.5q37 16 59 38t25 62h135v-805h221v-122z" />
    <glyph glyph-name="ordmasculine" unicode="&#xba;" horiz-adv-x="1117" 
d="M996 1025q0 -235 -122 -364.5t-315 -129.5q-201 0 -319.5 132.5t-118.5 361.5t118.5 362t319.5 133q193 0 315 -130t122 -365zM814 1025q0 172 -67.5 258t-187.5 86q-122 0 -189 -87t-67 -257t67 -256.5t189 -86.5q120 0 187.5 85.5t67.5 257.5z" />
    <glyph glyph-name="guillemotright" unicode="&#xbb;" horiz-adv-x="1093" 
d="M548 1086l127 -2l316 -279l2 -111l-127 1l-316 279zM993 694l-2 -111l-316 -280l-127 -1l2 111l316 280zM100 1086l126 -2l317 -279l2 -111l-127 1l-316 279zM545 694l-2 -111l-317 -280l-126 -1l2 111l316 280z" />
    <glyph glyph-name="onequarter" unicode="&#xbc;" horiz-adv-x="2048" 
d="M545 565h-165v681h-209v117q102 0 165 22t72 108h137v-928zM1410 1489l-780 -1489h-165l780 1489h165zM1857 220h-163v-220h-150v220h-465v185l466 539h149v-591h163v-133zM1548 353v400l-353 -400h353z" />
    <glyph glyph-name="onehalf" unicode="&#xbd;" horiz-adv-x="2048" 
d="M545 565h-165v681h-209v117q102 0 165 22t72 108h137v-928zM1410 1489l-780 -1489h-165l780 1489h165zM1955 0h-688v148q91 69 158 121t106 89q109 103 141 157.5t32 136.5q0 70 -44 107t-120 37q-70 0 -141.5 -30t-112.5 -62h-15v179q65 27 140.5 44t152.5 17
q157 0 241.5 -79t84.5 -201q0 -93 -41 -167t-147 -168q-49 -43 -119.5 -96t-125.5 -94h498v-139z" />
    <glyph glyph-name="threequarters" unicode="&#xbe;" horiz-adv-x="2048" 
d="M793 826q0 -71 -30 -127t-78 -90q-53 -37 -114.5 -53t-140.5 -16q-82 0 -153.5 15t-136.5 43v175h17q37 -35 114 -64.5t156 -29.5q84 0 139 36.5t55 108.5q0 83 -50 112.5t-141 29.5h-140v139h125q87 0 134.5 38t47.5 104q0 60 -41 95.5t-128 35.5q-66 0 -142.5 -31
t-113.5 -66h-17v175q64 27 139 44t154 17q152 0 237 -70t85 -168q0 -87 -48.5 -143.5t-125.5 -82.5v-8q80 -16 138.5 -70.5t58.5 -148.5zM1500 1489l-780 -1489h-165l780 1489h165zM1913 220h-163v-220h-150v220h-465v185l466 539h149v-591h163v-133zM1604 353v400
l-353 -400h353z" />
    <glyph glyph-name="questiondown" unicode="&#xbf;" horiz-adv-x="1230" 
d="M1041 32l-88 -88l-677 1l-88 88l88 89l677 -1zM188 33l88 89l1 435l-88 87l-88 -87l-1 -435zM1041 32l88 89l1 435l-88 87l-88 -87l-1 -435zM188 644l121 1l305 304l2 121h-122l-304 -305zM704 1167l-177 1l1 176l177 -1z" />
    <glyph glyph-name="Agrave" unicode="&#xc0;" 
d="M188 700l88 87h677l88 -87l-88 -89h-677l-88 89v0zM188 1312l88 87h677l88 -87l-88 -90h-677l-88 90v0zM1041 1312l88 -90v-435l-88 -88l-88 88v435l88 90v0zM188 699l-88 88v435l88 90l88 -90v-435l-88 -88v0zM100 611v-523l88 -88l88 88v523l-88 88l-88 -88v0zM1041 0
l88 88v523l-88 88l-88 -88v-523l88 -88v0zM337 1903l146 97l119 -177v-318l-265 398v0z" />
    <glyph glyph-name="Aacute" unicode="&#xc1;" 
d="M188 700l88 87h677l88 -87l-88 -89h-677l-88 89v0zM188 1312l88 87h677l88 -87l-88 -90h-677l-88 90v0zM1041 1312l88 -90v-435l-88 -88l-88 88v435l88 90v0zM188 699l-88 88v435l88 90l88 -90v-435l-88 -88v0zM100 611v-523l88 -88l88 88v523l-88 88l-88 -88v0zM1041 0
l88 88v523l-88 88l-88 -88v-523l88 -88v0zM891 1949l-269 -394v315l121 175z" />
    <glyph glyph-name="Acircumflex" unicode="&#xc2;" 
d="M188 700l88 87h677l88 -87l-88 -89h-677l-88 89v0zM188 1312l88 87h677l88 -87l-88 -90h-677l-88 90v0zM1041 1312l88 -90v-435l-88 -88l-88 88v435l88 90v0zM188 699l-88 88v435l88 90l88 -90v-435l-88 -88v0zM100 611v-523l88 -88l88 88v523l-88 88l-88 -88v0zM1041 0
l88 88v523l-88 88l-88 -88v-523l88 -88v0zM917 1671l-305 304l-1 122l121 -2l305 -304l1 -122zM609 1975l-304 -304l-122 -2l2 122l304 304l122 2z" />
    <glyph glyph-name="Atilde" unicode="&#xc3;" 
d="M188 700l88 87h677l88 -87l-88 -89h-677l-88 89v0zM188 1312l88 87h677l88 -87l-88 -90h-677l-88 90v0zM1041 1312l88 -90v-435l-88 -88l-88 88v435l88 90v0zM188 699l-88 88v435l88 90l88 -90v-435l-88 -88v0zM100 611v-523l88 -88l88 88v523l-88 88l-88 -88v0zM1041 0
l88 88v523l-88 88l-88 -88v-523l88 -88v0zM464 1967h124l177 -177l1 -124l-125 -1l-177 178v124zM765 1666v125l177 177l124 1l1 -126l-177 -177h-125zM163 1665v125l177 177l123 1l1 -126l-177 -177h-124z" />
    <glyph glyph-name="Adieresis" unicode="&#xc4;" 
d="M188 700l88 87h677l88 -87l-88 -89h-677l-88 89v0zM188 1312l88 87h677l88 -87l-88 -90h-677l-88 90v0zM1041 1312l88 -90v-435l-88 -88l-88 88v435l88 90v0zM188 699l-88 88v435l88 90l88 -90v-435l-88 -88v0zM100 611v-523l88 -88l88 88v523l-88 88l-88 -88v0zM1041 0
l88 88v523l-88 88l-88 -88v-523l88 -88v0zM926 1677h-199v195h199v-195zM513 1677h-199v195h199v-195z" />
    <glyph glyph-name="Aring" unicode="&#xc5;" 
d="M188 700l88 87h677l88 -87l-88 -89h-677zM188 1312l88 87h677l88 -87l-88 -90h-677zM1041 1312l88 -90v-435l-88 -88l-88 88v435zM188 699l-88 88v435l88 90l88 -90v-435zM100 611v-523l88 -88l88 88v523l-88 88zM1041 0l88 88v523l-88 88l-88 -88v-523zM371 1914l67 68
h329l68 -68l-68 -69h-329zM835 1465l68 67l-1 313l-67 69l-68 -69l1 -313zM371 1465l68 67l-1 313l-67 69l-68 -69l1 -313zM439 1397h329l67 68l-67 67h-329l-68 -67z" />
    <glyph glyph-name="AE" unicode="&#xc6;" horiz-adv-x="1994" 
d="M1041 89l88 88h677l88 -88l-88 -88h-677l-88 88v0zM1041 1312l88 88h677l88 -88l-88 -89h-677l-88 89v0zM1041 701l88 89h677l88 -89l-88 -88h-677l-88 88v0zM1041 1312l-88 -89v-435l88 -87l88 87v435l-88 89v0zM1041 89l-88 88v435l88 89l88 -89v-435l-88 -88v0z
M1041 89l88 88h677l88 -88l-88 -88h-677l-88 88v0zM188 701l88 89h677l88 -89l-88 -88h-677l-88 88v0zM1041 1312l88 88h677l88 -88l-88 -89h-677l-88 89v0zM1041 1312l-88 -89v-435l88 -87l88 87v42h-176v177h176v216l-88 89v0zM1041 89l-88 88v435l88 89l88 -89v-435
l-88 -88v0zM188 1312l-88 -89v-435l88 -87l88 87v435l-88 89v0zM188 1312l88 88h677l88 -88l-88 -89h-677l-88 89v0zM188 89l-88 88v435l88 89l88 -89v-435l-88 -88v0z" />
    <glyph glyph-name="Ccedilla" unicode="&#xc7;" horiz-adv-x="1141" 
d="M188 1311l88 88h677l88 -88l-88 -89h-677zM188 88l88 88h677l88 -88l-88 -88h-677zM188 1311l-88 -89v-435l88 -87l88 87v435zM188 88l-88 88v435l88 89l88 -89v-435zM190 -372l148 -32l358 240l29 129l-147 33l-355 -223z" />
    <glyph glyph-name="Egrave" unicode="&#xc8;" horiz-adv-x="1141" 
d="M188 88l88 88h677l88 -88l-88 -88h-677l-88 88v0zM188 1311l88 88h677l88 -88l-88 -89h-677l-88 89v0zM188 700l88 88h677l88 -88l-88 -88h-677l-88 88v0zM188 1311l-88 -89v-435l88 -87l88 87v435l-88 89v0zM188 88l-88 88v435l88 89l88 -89v-435l-88 -88v0zM357 1903
l146 97l119 -177v-318l-265 398v0z" />
    <glyph glyph-name="Eacute" unicode="&#xc9;" horiz-adv-x="1141" 
d="M188 88l88 88h677l88 -88l-88 -88h-677l-88 88v0zM188 1311l88 88h677l88 -88l-88 -89h-677l-88 89v0zM188 700l88 88h677l88 -88l-88 -88h-677l-88 88v0zM188 1311l-88 -89v-435l88 -87l88 87v435l-88 89v0zM188 88l-88 88v435l88 89l88 -89v-435l-88 -88v0zM859 1949
l-269 -394v315l121 175z" />
    <glyph glyph-name="Ecircumflex" unicode="&#xca;" horiz-adv-x="1141" 
d="M188 88l88 88h677l88 -88l-88 -88h-677l-88 88v0zM188 1311l88 88h677l88 -88l-88 -89h-677l-88 89v0zM188 700l88 88h677l88 -88l-88 -88h-677l-88 88v0zM188 1311l-88 -89v-435l88 -87l88 87v435l-88 89v0zM188 88l-88 88v435l88 89l88 -89v-435l-88 -88v0zM872 1671
l-305 304l-1 122l121 -2l305 -304l1 -122zM564 1975l-304 -304l-122 -2l2 122l304 304l122 2z" />
    <glyph glyph-name="Edieresis" unicode="&#xcb;" horiz-adv-x="1141" 
d="M188 88l88 88h677l88 -88l-88 -88h-677l-88 88v0zM188 1311l88 88h677l88 -88l-88 -89h-677l-88 89v0zM188 700l88 88h677l88 -88l-88 -88h-677l-88 88v0zM188 1311l-88 -89v-435l88 -87l88 87v435l-88 89v0zM188 88l-88 88v435l88 89l88 -89v-435l-88 -88v0zM899 1677
h-199v195h199v-195zM486 1677h-199v195h199v-195z" />
    <glyph glyph-name="Igrave" unicode="&#xcc;" horiz-adv-x="1053" 
d="M526 1311l89 -89v-435l-89 -88l-88 88v435zM526 700l89 -88v-435l-89 -88l-88 88v435zM953 1311l-88 -89h-250l-89 89l89 88h250zM953 88l-88 -88h-250l-89 88l89 88h250zM526 1311l-88 -89h-250l-88 89l88 88h250zM526 88l-88 -88h-250l-88 88l88 88h250zM255 1903
l146 97l119 -177v-318l-265 398v0z" />
    <glyph glyph-name="Iacute" unicode="&#xcd;" horiz-adv-x="1053" 
d="M526 1311l89 -89v-435l-89 -88l-88 88v435zM526 700l89 -88v-435l-89 -88l-88 88v435zM953 1311l-88 -89h-250l-89 89l89 88h250zM953 88l-88 -88h-250l-89 88l89 88h250zM526 1311l-88 -89h-250l-88 89l88 88h250zM526 88l-88 -88h-250l-88 88l88 88h250zM793 1949
l-269 -394v315l121 175z" />
    <glyph glyph-name="Icircumflex" unicode="&#xce;" horiz-adv-x="1053" 
d="M526 1311l89 -89v-435l-89 -88l-88 88v435zM526 700l89 -88v-435l-89 -88l-88 88v435zM953 1311l-88 -89h-250l-89 89l89 88h250zM953 88l-88 -88h-250l-89 88l89 88h250zM526 1311l-88 -89h-250l-88 89l88 88h250zM526 88l-88 -88h-250l-88 88l88 88h250z
M745.637 1677.77l-223.314 299.027l-0.732422 120.005l88.5938 -1.96777l223.314 -299.027l0.731445 -120.004zM520.125 1976.79l-222.582 -299.027l-89.3252 -1.9668l1.46387 120.004l222.582 299.027l89.3262 1.96777z" />
    <glyph glyph-name="Idieresis" unicode="&#xcf;" horiz-adv-x="1053" 
d="M526 1311l89 -89v-435l-89 -88l-88 88v435zM526 700l89 -88v-435l-89 -88l-88 88v435zM953 1311l-88 -89h-250l-89 89l89 88h250zM953 88l-88 -88h-250l-89 88l89 88h250zM526 1311l-88 -89h-250l-88 89l88 88h250zM526 88l-88 -88h-250l-88 88l88 88h250zM831 1677h-199
v195h199v-195zM418 1677h-199v195h199v-195z" />
    <glyph glyph-name="Eth" unicode="&#xd0;" horiz-adv-x="1467" 
d="M426 88l88 88h677l88 -88l-88 -88h-677l-88 88v0zM1279 700l88 -89v-435l-88 -88l-88 88v435l88 89v0zM426 1311l88 -89v-435l-88 -87l-88 87v435zM850 1307l134 -36l307 -433l-10 -138l-133 36l-308 433zM426 88l-88 88v435l88 89l88 -89v-435l-88 -88v0zM514 1399h250
l88 -88l-88 -89h-250l-88 89zM426 700l88 88h250l88 -88l-88 -88h-250l-88 88v0zM0 700l88 88h250l88 -88l-88 -88h-250l-88 88v0z" />
    <glyph glyph-name="Ntilde" unicode="&#xd1;" 
d="M100 611l88 88l88 -88v-523l-88 -88l-88 88v523zM100 1311l88 88l88 -88v-524l-88 -88l-88 88v524zM953 1311l88 88l88 -88v-524l-88 -88l-88 88v524zM953 611l88 88l88 -88v-523l-88 -88l-88 88v523zM294 1230l45 116l116 -46l209 -480l-46 -116l-116 46zM572 588
l46 116l116 -45l209 -480l-46 -116l-116 46zM463 1967h124l177 -177l1 -124l-125 -1l-177 178v124zM764 1666v125l177 177l124 1l1 -126l-177 -177h-125zM162 1665v125l177 177l123 1l1 -126l-177 -177h-124z" />
    <glyph glyph-name="Ograve" unicode="&#xd2;" 
d="M188 1311l88 88h677l88 -88l-88 -89h-677l-88 89v0zM188 88l88 88h677l88 -88l-88 -88h-677l-88 88v0zM1041 700l88 -89v-435l-88 -88l-88 88v435l88 89v0zM188 1311l-88 -89v-435l88 -87l88 87v435l-88 89v0zM1041 1311l-88 -89v-435l88 -87l88 87v435l-88 89v0zM188 88
l-88 88v435l88 89l88 -89v-435l-88 -88v0zM377 1903l146 97l119 -177v-318l-265 398v0z" />
    <glyph glyph-name="Oacute" unicode="&#xd3;" 
d="M188 1311l88 88h677l88 -88l-88 -89h-677l-88 89v0zM188 88l88 88h677l88 -88l-88 -88h-677l-88 88v0zM1041 700l88 -89v-435l-88 -88l-88 88v435l88 89v0zM188 1311l-88 -89v-435l88 -87l88 87v435l-88 89v0zM1041 1311l-88 -89v-435l88 -87l88 87v435l-88 89v0zM188 88
l-88 88v435l88 89l88 -89v-435l-88 -88v0zM849 1949l-269 -394v315l121 175z" />
    <glyph glyph-name="Ocircumflex" unicode="&#xd4;" 
d="M188 1311l88 88h677l88 -88l-88 -89h-677l-88 89v0zM188 88l88 88h677l88 -88l-88 -88h-677l-88 88v0zM1041 700l88 -89v-435l-88 -88l-88 88v435l88 89v0zM188 1311l-88 -89v-435l88 -87l88 87v435l-88 89v0zM1041 1311l-88 -89v-435l88 -87l88 87v435l-88 89v0zM188 88
l-88 88v435l88 89l88 -89v-435l-88 -88v0zM920 1671l-305 304l-1 122l121 -2l305 -304l1 -122zM612 1975l-304 -304l-122 -2l2 122l304 304l122 2z" />
    <glyph glyph-name="Otilde" unicode="&#xd5;" 
d="M188 1311l88 88h677l88 -88l-88 -89h-677l-88 89v0zM188 88l88 88h677l88 -88l-88 -88h-677l-88 88v0zM1041 700l88 -89v-435l-88 -88l-88 88v435l88 89v0zM188 1311l-88 -89v-435l88 -87l88 87v435l-88 89v0zM1041 1311l-88 -89v-435l88 -87l88 87v435l-88 89v0zM188 88
l-88 88v435l88 89l88 -89v-435l-88 -88v0zM462 1967h124l177 -177l1 -124l-125 -1l-177 178v124zM763 1666v125l177 177l124 1l1 -126l-177 -177h-125zM161 1665v125l177 177l123 1l1 -126l-177 -177h-124z" />
    <glyph glyph-name="Odieresis" unicode="&#xd6;" 
d="M188 1311l88 88h677l88 -88l-88 -89h-677l-88 89v0zM188 88l88 88h677l88 -88l-88 -88h-677l-88 88v0zM1041 700l88 -89v-435l-88 -88l-88 88v435l88 89v0zM188 1311l-88 -89v-435l88 -87l88 87v435l-88 89v0zM1041 1311l-88 -89v-435l88 -87l88 87v435l-88 89v0zM188 88
l-88 88v435l88 89l88 -89v-435l-88 -88v0zM932 1677h-199v195h199v-195zM519 1677h-199v195h199v-195z" />
    <glyph glyph-name="multiply" unicode="&#xd7;" horiz-adv-x="1053" 
d="M289 1080l664 -781l-26 -131l-165 36l-662 781l24 131zM950 986l-657 -783l-165 -37l-25 131l655 784l166 36z" />
    <glyph glyph-name="Oslash" unicode="&#xd8;" 
d="M188 1311l88 88h677l88 -88l-88 -89h-677l-88 89v0zM188 88l88 88h677l88 -88l-88 -88h-677l-88 88v0zM1041 700l88 -89v-435l-88 -88l-88 88v435l88 89v0zM188 1311l-88 -89v-435l88 -87l88 87v435l-88 89v0zM1041 1311l-88 -89v-435l88 -87l88 87v435l-88 89v0zM188 88
l-88 88v435l88 89l88 -89v-435l-88 -88v0zM888 1164l-115 -24l-442 -794l40 -109l114 24l442 793l-39 110v0z" />
    <glyph glyph-name="Ugrave" unicode="&#xd9;" 
d="M1041 87l-88 -87h-677l-88 87l88 89h677l88 -89v0zM188 87l-88 89v435l88 88l88 -88v-435l-88 -89v0zM1041 699l88 -88v-435l-88 -89l-88 89v435l88 88v0zM1129 787l-88 -88l-88 88v524l88 88l88 -88v-524zM188 1399l88 -88v-524l-88 -88l-88 88v524zM367 1903l146 97
l119 -177v-318l-265 398v0z" />
    <glyph glyph-name="Uacute" unicode="&#xda;" 
d="M1041 87l-88 -87h-677l-88 87l88 89h677l88 -89v0zM188 87l-88 89v435l88 88l88 -88v-435l-88 -89v0zM1041 699l88 -88v-435l-88 -89l-88 89v435l88 88v0zM1129 787l-88 -88l-88 88v524l88 88l88 -88v-524zM188 1399l88 -88v-524l-88 -88l-88 88v524zM829 1949l-269 -394
v315l121 175z" />
    <glyph glyph-name="Ucircumflex" unicode="&#xdb;" 
d="M1041 87l-88 -87h-677l-88 87l88 89h677l88 -89v0zM188 87l-88 89v435l88 88l88 -88v-435l-88 -89v0zM1041 699l88 -88v-435l-88 -89l-88 89v435l88 88v0zM1129 787l-88 -88l-88 88v524l88 88l88 -88v-524zM188 1399l88 -88v-524l-88 -88l-88 88v524zM928 1671l-305 304
l-1 122l121 -2l305 -304l1 -122zM620 1975l-304 -304l-122 -2l2 122l304 304l122 2z" />
    <glyph glyph-name="Udieresis" unicode="&#xdc;" 
d="M1041 87l-88 -87h-677l-88 87l88 89h677l88 -89v0zM188 87l-88 89v435l88 88l88 -88v-435l-88 -89v0zM1041 699l88 -88v-435l-88 -89l-88 89v435l88 88v0zM1129 787l-88 -88l-88 88v524l88 88l88 -88v-524zM188 1399l88 -88v-524l-88 -88l-88 88v524zM927 1677h-199v195
h199v-195zM514 1677h-199v195h199v-195z" />
    <glyph glyph-name="Yacute" unicode="&#xdd;" horiz-adv-x="1102" 
d="M125 1397l127 -44l308 -525l-24 -133l-128 44l-308 525zM574 692l-26 133l301 529l128 46l25 -133l-301 -529zM551 700l89 -89v-523l-89 -88l-88 88v523l88 89v0zM808 1949l-269 -394v315l121 175z" />
    <glyph glyph-name="Thorn" unicode="&#xde;" horiz-adv-x="1240" 
d="M1174 787q0 -92 -35 -176.5t-95 -141.5q-78 -75 -187.5 -111t-260.5 -36h-198v-322h-198v1489h198v-270h205q133 0 230 -22.5t164 -66.5q83 -53 130 -138t47 -205zM968 782q0 72 -26 125.5t-82 88.5q-48 30 -112 42.5t-154 12.5h-196v-563h167q119 0 195 20.5t123 65.5
q44 41 64.5 92t20.5 116z" />
    <glyph glyph-name="germandbls" unicode="&#xdf;" horiz-adv-x="1270" 
d="M1165 481q0 -214 -135.5 -359.5t-354.5 -145.5q-44 0 -101.5 7.5t-93.5 20.5v165h10q42 -24 91.5 -33t105.5 -9q74 0 129 29t88 78q35 52 50.5 115.5t15.5 139.5q0 166 -105.5 250.5t-303.5 84.5v150q157 0 234 59.5t77 188.5q0 35 -11 68t-41 64q-27 29 -71 46.5
t-105 17.5q-57 0 -103 -14.5t-86 -53.5q-37 -36 -59.5 -102t-22.5 -161v-1087h-188v1080q0 124 36 215.5t100 153.5q60 58 149.5 87.5t183.5 29.5q183 0 297.5 -87t114.5 -238q0 -112 -71 -201t-184 -121v-9q164 -37 259 -148.5t95 -280.5z" />
    <glyph glyph-name="agrave" unicode="&#xe0;" horiz-adv-x="979" 
d="M791 876l-88 -89h-427l-88 89l88 88h427zM791 482l-88 -88h-427l-88 88l88 88h427zM791 88l-88 -88h-427l-88 88l88 88h427zM879 394v-218l-88 -88l-88 88v218l88 88l88 -88v0zM276 394v-218l-88 -88l-88 88v218l88 88l88 -88v0zM879 789v-218l-88 -88l-88 88v218l88 88
l88 -88v0zM273 1530l146 97l119 -177v-318l-265 398v0z" />
    <glyph glyph-name="aacute" unicode="&#xe1;" horiz-adv-x="979" 
d="M791 876l-88 -89h-427l-88 89l88 88h427zM791 482l-88 -88h-427l-88 88l88 88h427zM791 88l-88 -88h-427l-88 88l88 88h427zM879 394v-218l-88 -88l-88 88v218l88 88l88 -88v0zM276 394v-218l-88 -88l-88 88v218l88 88l88 -88v0zM879 789v-218l-88 -88l-88 88v218l88 88
l88 -88v0zM790 1576l-269 -394v315l121 175z" />
    <glyph glyph-name="acircumflex" unicode="&#xe2;" horiz-adv-x="979" 
d="M791 876l-88 -89h-427l-88 89l88 88h427zM791 482l-88 -88h-427l-88 88l88 88h427zM791 88l-88 -88h-427l-88 88l88 88h427zM879 394v-218l-88 -88l-88 88v218l88 88l88 -88v0zM276 394v-218l-88 -88l-88 88v218l88 88l88 -88v0zM879 789v-218l-88 -88l-88 88v218l88 88
l88 -88v0zM735.651 1299.36l-222.589 312.517l-0.729492 125.418l88.3057 -2.05566l222.588 -312.517l0.729492 -125.418zM510.873 1611.88l-221.858 -312.517l-89.0352 -2.05566l1.45996 125.418l221.858 312.517l89.0352 2.05566z" />
    <glyph glyph-name="atilde" unicode="&#xe3;" horiz-adv-x="979" 
d="M368 1594h100l142 -171l1 -119l-101 -1l-142 172v119v0zM610 1304v120l143 171l100 1l1 -121l-143 -171h-101v0zM125 1303v120l143 171l99 1l1 -121l-143 -171h-100v0zM791 876l-88 88h-427l-88 -88l88 -89h427l88 89v0zM791 482l-88 88h-427l-88 -88l88 -88h427l88 88v0
zM791 88l-88 88h-427l-88 -88l88 -88h427l88 88v0zM879 394v-218l-88 -88l-88 88v218l88 88l88 -88v0zM276 394v-218l-88 -88l-88 88v218l88 88l88 -88v0zM879 789v-218l-88 -88l-88 88v218l88 88l88 -88v0z" />
    <glyph glyph-name="adieresis" unicode="&#xe4;" horiz-adv-x="979" 
d="M791 876l-88 -89h-427l-88 89l88 88h427zM791 482l-88 -88h-427l-88 88l88 88h427zM791 88l-88 -88h-427l-88 88l88 88h427zM879 394v-218l-88 -88l-88 88v218l88 88l88 -88v0zM276 394v-218l-88 -88l-88 88v218l88 88l88 -88v0zM879 789v-218l-88 -88l-88 88v218l88 88
l88 -88v0zM797 1304h-199v195h199v-195zM384 1304h-199v195h199v-195z" />
    <glyph glyph-name="aring" unicode="&#xe5;" horiz-adv-x="993" 
d="M201 1927l88 88h427l88 -88l-88 -89h-427zM805 1343l88 88l-1 407l-88 89l-88 -89l1 -407zM202 1343l88 88l-1 407l-88 89l-88 -89l1 -407zM290 1255h427l88 88l-88 88h-427l-88 -88zM791 876l-88 88h-427l-88 -88l88 -89h427l88 89v0zM791 482l-88 88h-427l-88 -88
l88 -88h427l88 88v0zM791 88l-88 88h-427l-88 -88l88 -88h427l88 88v0zM879 394v-218l-88 -88l-88 88v218l88 88l88 -88v0zM276 394v-218l-88 -88l-88 88v218l88 88l88 -88v0zM879 789v-218l-88 -88l-88 88v218l88 88l88 -88v0z" />
    <glyph glyph-name="ae" unicode="&#xe6;" horiz-adv-x="1494" 
d="M791 876l-88 -89h-426l-88 89l88 88h426zM791 482l-88 -88h-426l-88 88l88 88h426zM791 88l-88 -88h-426l-88 88l88 88h426zM879 394v-218l-88 -88l-88 88v218l88 88l88 -88v0zM277 394v-218l-88 -88l-89 88v218l89 88l88 -88v0zM879 789v-218l-88 -88l-88 88v218l88 88
l88 -88v0zM1394 876l-88 -89l-427 2l-88 88l88 87h427zM1394 88l-88 -88l-427 1l-88 88l88 87h427z" />
    <glyph glyph-name="ccedilla" unicode="&#xe7;" horiz-adv-x="891" 
d="M188 876l88 88h427l88 -88l-88 -89h-427zM188 88l88 88v611l-88 89l-88 -89v-611zM276 0h427l88 88l-88 88h-427l-88 -88zM155 -358l148 -32l358 240l29 129l-147 33l-355 -223z" />
    <glyph glyph-name="egrave" unicode="&#xe8;" horiz-adv-x="979" 
d="M791 876l-88 -89h-427l-88 89l88 88h427zM791 482l-88 -88h-427l-88 88l88 88h427zM791 88l-88 -88h-427l-88 88l88 88h427zM276 394v-218l-88 -88l-88 88v218l88 88l88 -88v0zM879 789v-218l-88 -88l-88 88v218l88 88l88 -88v0zM276 789v-218l-88 -88l-88 88v218l88 88
l88 -88v0zM224 1530l146 97l119 -177v-318l-265 398v0z" />
    <glyph glyph-name="eacute" unicode="&#xe9;" horiz-adv-x="979" 
d="M791 876l-88 -89h-427l-88 89l88 88h427zM791 482l-88 -88h-427l-88 88l88 88h427zM791 88l-88 -88h-427l-88 88l88 88h427zM276 394v-218l-88 -88l-88 88v218l88 88l88 -88v0zM879 789v-218l-88 -88l-88 88v218l88 88l88 -88v0zM276 789v-218l-88 -88l-88 88v218l88 88
l88 -88v0zM766 1576l-269 -394v315l121 175z" />
    <glyph glyph-name="ecircumflex" unicode="&#xea;" horiz-adv-x="979" 
d="M791 876l-88 -89h-427l-88 89l88 88h427zM791 482l-88 -88h-427l-88 88l88 88h427zM791 88l-88 -88h-427l-88 88l88 88h427zM276 394v-218l-88 -88l-88 88v218l88 88l88 -88v0zM879 789v-218l-88 -88l-88 88v218l88 88l88 -88v0zM276 789v-218l-88 -88l-88 88v218l88 88
l88 -88v0zM725.213 1413.51l-229.011 228.705l-0.750977 91.7822l90.8535 -1.50391l229.011 -228.705l0.750977 -91.7832zM493.949 1642.22l-228.26 -228.705l-91.6035 -1.50488l1.50098 91.7832l228.26 228.705l91.6045 1.50391z" />
    <glyph glyph-name="edieresis" unicode="&#xeb;" horiz-adv-x="979" 
d="M791 876l-88 -89h-427l-88 89l88 88h427zM791 482l-88 -88h-427l-88 88l88 88h427zM791 88l-88 -88h-427l-88 88l88 88h427zM276 394v-218l-88 -88l-88 88v218l88 88l88 -88v0zM879 789v-218l-88 -88l-88 88v218l88 88l88 -88v0zM276 789v-218l-88 -88l-88 88v218l88 88
l88 -88v0zM802 1304h-199v195h199v-195zM389 1304h-199v195h199v-195z" />
    <glyph glyph-name="igrave" unicode="&#xec;" horiz-adv-x="419" 
d="M319 0h-188v1117h188v-1117zM10 1660l146 97l119 -177v-318z" />
    <glyph glyph-name="iacute" unicode="&#xed;" horiz-adv-x="469" 
d="M296 0h-188v1117h188v-1117zM369 1656l-269 -394v315l121 175z" />
    <glyph glyph-name="icircumflex" unicode="&#xee;" horiz-adv-x="583" 
d="M583 1297h-151l-143 267l-142 -267h-147l178 379h227zM386 0h-188v1117h188v-1117z" />
    <glyph glyph-name="idieresis" unicode="&#xef;" horiz-adv-x="552" 
d="M552 1304h-189v195h189v-195zM189 1304h-189v195h189v-195zM370 0h-188v1117h188v-1117z" />
    <glyph glyph-name="eth" unicode="&#xf0;" horiz-adv-x="1253" 
d="M1137 637q0 -324 -142 -496t-383 -172q-229 0 -367.5 135t-138.5 380q0 226 137 358t339 132q108 0 185.5 -26.5t163.5 -79.5q-32 112 -99.5 219t-154.5 181l-264 -162l-66 97l237 142q-84 67 -156 107.5t-165 87.5v16h295q35 -25 84 -58.5t86 -59.5l210 128l66 -97
l-186 -109q153 -147 236 -325.5t83 -397.5zM847 226q49 59 75 143.5t26 234.5q0 32 -1.5 59.5t-3.5 57.5q-75 45 -157.5 66.5t-168.5 21.5q-147 0 -231.5 -87.5t-84.5 -239.5q0 -180 84.5 -267t227.5 -87q66 0 127.5 22t106.5 76z" />
    <glyph glyph-name="ntilde" unicode="&#xf1;" horiz-adv-x="979" 
d="M100 787v-699l88 -88l88 88v699l-88 89l-88 -89v0zM703 787v-699l88 -88l88 88v699l-88 89l-88 -89v0zM188 876l88 88h427l88 -88l-88 -89h-427l-88 89v0zM362.906 1547.56h104.8l149.592 -149.636l0.845703 -104.829l-105.645 -0.845703l-149.593 150.481v104.829z
M617.298 1293.1v105.675l149.593 149.636l104.799 0.844727l0.844727 -106.52l-149.592 -149.636h-105.645zM108.516 1292.25v105.675l149.592 149.636l103.954 0.845703l0.844727 -106.521l-149.592 -149.636h-104.799z" />
    <glyph glyph-name="ograve" unicode="&#xf2;" horiz-adv-x="979" 
d="M188 876l88 88h427l88 -88l-88 -89h-427l-88 89v0zM791 88l88 88v611l-88 89l-88 -89v-611l88 -88v0zM188 88l88 88v611l-88 89l-88 -89v-611l88 -88v0zM276 0h427l88 88l-88 88h-427l-88 -88l88 -88v0zM367 1530l146 97l119 -177v-318l-265 398v0z" />
    <glyph glyph-name="oacute" unicode="&#xf3;" horiz-adv-x="979" 
d="M188 876l88 88h427l88 -88l-88 -89h-427l-88 89v0zM791 88l88 88v611l-88 89l-88 -89v-611l88 -88v0zM188 88l88 88v611l-88 89l-88 -89v-611l88 -88v0zM276 0h427l88 88l-88 88h-427l-88 -88l88 -88v0zM699 1576l-269 -394v315l121 175z" />
    <glyph glyph-name="ocircumflex" unicode="&#xf4;" horiz-adv-x="986" 
d="M195 876l88 88h427l88 -88l-88 -89h-427l-88 89v0zM798 88l88 88v611l-88 89l-88 -89v-611l88 -88v0zM195 88l88 88v611l-88 89l-88 -89v-611l88 -88v0zM283 0h427l88 88l-88 88h-427l-88 -88l88 -88v0zM740.663 1299.01l-266.112 304.705l-0.87207 122.282
l105.572 -2.00391l266.111 -304.705l0.873047 -122.283zM471.934 1603.72l-265.239 -304.705l-106.444 -2.00488l1.74512 122.283l265.239 304.705l106.444 2.00391z" />
    <glyph glyph-name="otilde" unicode="&#xf5;" horiz-adv-x="979" 
d="M188 876l88 88h427l88 -88l-88 -89h-427l-88 89v0zM791 88l88 88v611l-88 89l-88 -89v-611l88 -88v0zM188 88l88 88v611l-88 89l-88 -89v-611l88 -88v0zM276 0h427l88 88l-88 88h-427l-88 -88l88 -88v0zM371.18 1542.3h94.3701l134.705 -146.719l0.761719 -102.785
l-95.1309 -0.829102l-134.706 147.547v102.786zM600.255 1292.79v103.614l134.706 146.719l94.3691 0.829102l0.761719 -104.444l-134.706 -146.718h-95.1309zM142.104 1291.96v103.614l134.706 146.719l93.6084 0.829102l0.760742 -104.443l-134.705 -146.719h-94.3701z
" />
    <glyph glyph-name="odieresis" unicode="&#xf6;" horiz-adv-x="979" 
d="M188 876l88 88h427l88 -88l-88 -89h-427l-88 89v0zM791 88l88 88v611l-88 89l-88 -89v-611l88 -88v0zM188 88l88 88v611l-88 89l-88 -89v-611l88 -88v0zM276 0h427l88 88l-88 88h-427l-88 -88l88 -88v0zM799 1304h-199v195h199v-195zM386 1304h-199v195h199v-195z" />
    <glyph glyph-name="divide" unicode="&#xf7;" horiz-adv-x="1276" 
d="M777 1022h-238v275h238v-275zM777 7h-238v275h238v-275zM100 700l88 87h900l88 -87l-88 -89h-900z" />
    <glyph glyph-name="oslash" unicode="&#xf8;" horiz-adv-x="979" 
d="M188 876l88 88h427l88 -88l-88 -89h-427l-88 89v0zM188 88l88 88v611l-88 89l-88 -89v-611l88 -88v0zM791 88l88 88v611l-88 89l-88 -89v-611l88 -88v0zM316 221l112 10l269 404l-34 107l-112 -9l-270 -405l35 -107v0zM276 0h427l88 88l-88 88h-427l-88 -88l88 -88v0z
" />
    <glyph glyph-name="ugrave" unicode="&#xf9;" horiz-adv-x="979" 
d="M276 0h427l88 88l-88 88h-427l-88 -88l88 -88v0zM188 964l88 -88v-700l-88 -88l-88 88v700l88 88v0zM791 964l88 -88v-700l-88 -88l-88 88v700l88 88v0zM249 1530l146 97l119 -177v-318l-265 398v0z" />
    <glyph glyph-name="uacute" unicode="&#xfa;" horiz-adv-x="979" 
d="M276 0h427l88 88l-88 88h-427l-88 -88l88 -88v0zM188 964l88 -88v-700l-88 -88l-88 88v700l88 88v0zM791 964l88 -88v-700l-88 -88l-88 88v700l88 88v0zM731 1576l-269 -394v315l121 175z" />
    <glyph glyph-name="ucircumflex" unicode="&#xfb;" horiz-adv-x="982" 
d="M279 0h427l88 88l-88 88h-427l-88 -88l88 -88v0zM191 964l88 -88v-700l-88 -88l-88 88v700l88 88v0zM794 964l88 -88v-700l-88 -88l-88 88v700l88 88v0zM757.21 1297.5l-273.261 272.03l-0.895508 109.17l108.408 -1.79004l273.26 -272.03l0.896484 -109.17z
M481.262 1569.53l-272.364 -272.03l-109.304 -1.79004l1.79199 109.17l272.364 272.03l109.304 1.79004z" />
    <glyph glyph-name="udieresis" unicode="&#xfc;" horiz-adv-x="979" 
d="M276 0h427l88 88l-88 88h-427l-88 -88l88 -88v0zM188 964l88 -88v-700l-88 -88l-88 88v700l88 88v0zM791 964l88 -88v-700l-88 -88l-88 88v700l88 88v0zM806 1304h-199v195h199v-195zM393 1304h-199v195h199v-195z" />
    <glyph glyph-name="yacute" unicode="&#xfd;" horiz-adv-x="986" 
d="M125 961l122 -27l458 -702l-26 -123l-122 27l-457 702zM710 876l88 85l88 -85v-700l-88 -88l-93 88l5 700v0zM798 -435l-88 82v353l88 88l88 -88v-353zM731 1576l-269 -394v315l121 175z" />
    <glyph glyph-name="thorn" unicode="&#xfe;" horiz-adv-x="1276" 
d="M1168 572q0 -136 -39 -248.5t-110 -190.5q-66 -74 -155.5 -114.5t-189.5 -40.5q-87 0 -157.5 19t-143.5 59v-468h-188v1968h188v-556q75 63 168.5 105.5t199.5 42.5q202 0 314.5 -152.5t112.5 -423.5zM974 567q0 202 -69 302t-212 100q-81 0 -163 -35t-157 -92v-633
q80 -36 137.5 -49t130.5 -13q157 0 245 106t88 314z" />
    <glyph glyph-name="ydieresis" unicode="&#xff;" horiz-adv-x="986" 
d="M125 961l122 -27l458 -702l-26 -123l-122 27l-457 702zM710 876l88 85l88 -85v-700l-88 -88l-93 88l5 700v0zM798 -435l-88 82v353l88 88l88 -88v-353zM831 1304h-199v195h199v-195zM418 1304h-199v195h199v-195z" />
    <glyph glyph-name="OE" unicode="&#x152;" horiz-adv-x="1994" 
d="M1041 88l88 88h677l88 -88l-88 -88h-677l-88 88v0zM1041 1311l88 88h677l88 -88l-88 -89h-677l-88 89v0zM1041 700l88 88h677l88 -88l-88 -88h-677l-88 88v0zM1041 1311l-88 -89v-435l88 -87l88 87v435l-88 89v0zM1041 88l-88 88v435l88 89l88 -89v-435l-88 -88v0z
M1041 88l88 88h677l88 -88l-88 -88h-677l-88 88v0zM188 88l88 88h677l88 -88l-88 -88h-677l-88 88v0zM1041 1311l88 88h677l88 -88l-88 -89h-677l-88 89v0zM1041 1311l-88 -89v-435l88 -87l88 87v42h-176v176h176v217l-88 89v0zM1041 88l-88 88v435l88 89l88 -89v-435
l-88 -88v0zM188 1311l-88 -89v-435l88 -87l88 87v435l-88 89v0zM188 1311l88 88h677l88 -88l-88 -89h-677l-88 89v0zM188 88l-88 88v435l88 89l88 -89v-435l-88 -88v0z" />
    <glyph glyph-name="oe" unicode="&#x153;" horiz-adv-x="1581" 
d="M1393 877l-88 -88h-426l-88 88l88 88h426zM791 877l-88 -88h-427l-88 88l88 88h427zM791 89l-88 -88h-427l-88 88l88 89h427zM1393 483l-88 -88h-426l-88 88l88 88h426zM1393 89l-88 -88h-426l-88 88l88 89h426zM879 395v-217l-88 -89l-88 89v217l88 88l88 -88v0z
M1481 790v-217l-88 -88l-88 88v217l88 88l88 -88v0zM879 790v-218l-88 -88l-88 88v218l88 88l88 -88v0zM100 176v611l88 90l88 -88v-611l-88 -89z" />
    <glyph glyph-name="Scaron" unicode="&#x160;" 
d="M262 2076l305 -305l1 -121l-121 1l-305 305l-1 121zM570 1771l304 305l122 1l-2 -121l-304 -305l-122 -1zM188 1311l88 88h677l88 -88l-88 -89h-677l-88 89v0zM188 700l88 87h677l88 -87l-88 -89h-677l-88 89v0zM188 88l88 88h677l88 -88l-88 -88h-677l-88 88v0z
M1041 700l88 -89v-435l-88 -88l-88 88v435l88 89v0zM188 1311l88 -89v-435l-88 -87l-88 87v435z" />
    <glyph glyph-name="scaron" unicode="&#x161;" horiz-adv-x="979" 
d="M220 1822l260 -297l3 -118l-104 2l-260 297l-2 119zM484 1526l260 296l104 2l-2 -118l-260 -297l-103 -2zM791 876l-88 -89h-427l-88 89l88 88h427zM791 482l-88 -88h-427l-88 88l88 88h427zM791 88l-88 -88h-427l-88 88l88 88h427zM879 394v-218l-88 -88l-88 88v218
l88 88l88 -88v0zM276 789v-218l-88 -88l-88 88v218l88 88l88 -88v0z" />
    <glyph glyph-name="Ydieresis" unicode="&#x178;" horiz-adv-x="1102" 
d="M125 1397l127 -44l308 -525l-24 -133l-128 44l-308 525zM574 692l-26 133l301 529l128 46l25 -133l-301 -529zM551 700l89 -89v-523l-89 -88l-88 88v523l88 89v0zM857 1677h-199v195h199v-195zM444 1677h-199v195h199v-195z" />
    <glyph glyph-name="Zcaron" unicode="&#x17d;" 
d="M303 2127l305 -305l1 -121l-121 1l-305 305l-1 121zM611 1822l304 305l122 1l-2 -121l-304 -305l-122 -1zM617 699l-9 140l373 523l135 37l9 -139l-374 -524zM113 0l-9 139l374 524l134 37l9 -139l-374 -524zM1129 88l-88 -88h-651l-77 88l71 88h657zM916 1311l-88 -89
h-651l-77 89l71 88h657z" />
    <glyph glyph-name="zcaron" unicode="&#x17e;" horiz-adv-x="977" 
d="M216 1822l260 -297l3 -118l-104 2l-260 297l-2 119zM480 1526l260 296l104 2l-2 -118l-260 -297l-103 -2zM872 796l-12 -124l-637 -518l-123 14l12 123l637 518zM100 876l86 88h515l88 -88l-88 -89h-515l-86 89v0zM877 88l-88 -88h-515l-88 88l88 88h515l88 -88v0z" />
    <glyph glyph-name="florin" unicode="&#x192;" 
d="M614 1311l89 88h338l88 -88l-88 -89h-338l-89 89v0zM100 88l88 88h338l88 -88l-88 -88h-338l-88 88v0zM526 1222v-435l88 -87l89 87v435l-89 89l-88 -89v0zM526 611v-435l88 -87l89 87v435l-89 88l-88 -88v0zM953 699l-81 88h-169l-89 -88l89 -88h179l71 88v0zM357 787
l-81 -88l81 -88h169l88 88l-88 88h-169v0z" />
    <glyph glyph-name="circumflex" unicode="&#x2c6;" horiz-adv-x="1055" 
d="M834 1298l-305 304l-1 122l121 -2l305 -304l1 -122zM526 1602l-304 -304l-122 -2l2 122l304 304l122 2z" />
    <glyph glyph-name="tilde" unicode="&#x2dc;" horiz-adv-x="1104" 
d="M401 1594h124l177 -177l1 -124l-125 -1l-177 178v124zM702 1293v125l177 177l124 1l1 -126l-177 -177h-125zM100 1292v125l177 177l123 1l1 -126l-177 -177h-124z" />
    <glyph glyph-name="endash" unicode="&#x2013;" horiz-adv-x="1276" 
d="M100 700l88 87h900l88 -87l-88 -89h-900z" />
    <glyph glyph-name="emdash" unicode="&#x2014;" horiz-adv-x="2044" 
d="M100 700l88 87h1668l88 -87l-88 -89h-1668z" />
    <glyph glyph-name="quoteleft" unicode="&#x2018;" horiz-adv-x="465" 
d="M246 1627l119 -177v-318l-265 398z" />
    <glyph glyph-name="quoteright" unicode="&#x2019;" horiz-adv-x="469" 
d="M369 1526l-269 -394v315l121 175z" />
    <glyph glyph-name="quotesinglbase" unicode="&#x201a;" horiz-adv-x="326" 
d="M226 291v-328l-176 -264v592h176z" />
    <glyph glyph-name="quotedblleft" unicode="&#x201c;" horiz-adv-x="781" 
d="M246 1627l119 -177v-318l-265 398zM562 1627l119 -177v-318l-265 398z" />
    <glyph glyph-name="quotedblright" unicode="&#x201d;" horiz-adv-x="831" 
d="M369 1526l-269 -394v315l121 175zM731 1526l-269 -394v315l121 175z" />
    <glyph glyph-name="quotedblbase" unicode="&#x201e;" horiz-adv-x="661" 
d="M276 291v-328l-176 -264v592h176zM561 291v-328l-176 -264v592h176z" />
    <glyph glyph-name="dagger" unicode="&#x2020;" horiz-adv-x="1302" 
d="M1115 1034l-403 5l5 -904h-132l5 904l-403 -5v129l403 -5l-5 398h132l-5 -398l403 5v-129z" />
    <glyph glyph-name="daggerdbl" unicode="&#x2021;" horiz-adv-x="1302" 
d="M1115 507l-403 5l5 -388h-132l5 388l-403 -5v129l403 -5v418l-403 -5v129l403 -5l-5 388h132l-5 -388l403 5v-129l-403 5v-418l403 5v-129z" />
    <glyph glyph-name="bullet" unicode="&#x2022;" horiz-adv-x="1117" 
d="M932 662q0 -154 -110 -263.5t-264 -109.5t-263.5 109.5t-109.5 263.5t109.5 263.5t263.5 109.5t264 -109.5t110 -263.5z" />
    <glyph glyph-name="ellipsis" unicode="&#x2026;" horiz-adv-x="1520" 
d="M1420 0h-204v223h204v-223zM862 0h-204v223h204v-223zM304 0h-204v223h204v-223z" />
    <glyph glyph-name="perthousand" unicode="&#x2030;" horiz-adv-x="1914" 
d="M1041 699l88 -88v-435l-88 -88l-88 88v435zM1299 1399l-2 -122l-304 -304l-122 -2l2 122l304 304zM528 428l-2 -122l-304 -304l-122 -2l2 122l304 304zM614 87l-88 89v435l88 89l89 -89v-435zM953 0h-250l-89 88l89 88h250l88 -88zM614 1311l89 -89v-435l-89 -88l-88 88
v435zM188 1312l88 87h250l88 -88l-88 -89h-250l-88 90v0zM188 699l-88 88v435l88 90l88 -90v-435zM526 611h-250l-88 88l88 88h250l88 -88zM953 611h-250l-89 88l89 88h250l88 -88zM1725 699l89 -88v-435l-89 -88l-88 88v435zM1299 87l-88 89v435l88 89l88 -89v-435zM1637 0
h-250l-88 88l88 88h250l88 -88zM1637 611h-250l-88 88l88 88h250l88 -88z" />
    <glyph glyph-name="guilsinglleft" unicode="&#x2039;" horiz-adv-x="628" 
d="M526 1006l-304 -304l-122 -2l2 122l304 304l122 2zM222 699l304 -305l2 -121l-122 1l-304 305l-2 121z" />
    <glyph glyph-name="guilsinglright" unicode="&#x203a;" horiz-adv-x="627" 
d="M101 393l305 305l121 1l-1 -121l-305 -305l-121 -1zM406 701l-305 304l-1 122l121 -2l305 -304l1 -122z" />
    <glyph glyph-name="Euro" unicode="&#x20ac;" horiz-adv-x="1435" 
d="M482 88l88 88h677l88 -88l-88 -88h-677l-88 88v0zM482 1311l88 88h677l88 -88l-88 -89h-677l-88 89v0zM100 917l88 88h677l88 -88l-88 -88h-677l-88 88v0zM100 482l88 88h677l88 -88l-88 -88h-677l-88 88v0zM482 1311l-88 -89v-435l88 -87l88 87v42h-176v176h176v217
l-88 89v0zM482 88l-88 88v435l88 89l88 -89v-435l-88 -88v0z" />
    <glyph glyph-name="trademark" unicode="&#x2122;" horiz-adv-x="1997" 
d="M939 1408v-485l61 -61l61 61v485l-61 62zM1357 1408v-485l61 -61l61 61v485l-61 62zM1775 1408v-485l61 -61l61 61v485l-61 62zM1000 1470l61 61h296l61 -61l-61 -62h-296zM1418 1470l61 61h296l61 -61l-61 -62h-296zM462 1467l61 61h296l61 -61l-61 -61h-296zM40 1465
l61 61h296l61 -61l-61 -62h-296zM399 1407v-485l61 -61l61 61v485l-61 62z" />
    </font>
</defs>
</svg>
